  0
SECTION
  2
HEADER
  9
$ACADVER
  1
AC1009
  9
$EXTMIN
 10
0.0
 20
0.0
 30
0.0
  9
$EXTMAX
 10
1000.0
 20
1000.0
 30
0.0
  9
$FILLMODE
 70
 0
  9
$SPLFRAME
 70
 1
  0
ENDSEC
  0
SECTION
  2
TABLES
  0
TABLE
  2
LAYER
 70
1
  0
LAYER
  2
0
 70
     0
 62
     7
  6
CONTINUOUS
  0
ENDTAB
  0
ENDSEC
  0
SECTION
  2
ENTITIES
  0
LINE
  8
0
 62
     0
 10
0.0950846
 20
127.963
 30
0.0
 11
80.0957
 21
127.963
 31
0.0
  0
LINE
  8
0
 62
     0
 10
80.0957
 20
127.963
 30
0.0
 11
80.0957
 21
0.337619
 31
0.0
  0
LINE
  8
0
 62
     0
 10
80.0957
 20
0.337619
 30
0.0
 11
0.0950846
 21
0.337619
 31
0.0
  0
LINE
  8
0
 62
     0
 10
0.0950846
 20
0.337619
 30
0.0
 11
0.0950846
 21
127.963
 31
0.0
  0
LINE
  8
0
 62
     0
 10
14.045
 20
18.7647
 30
0.0
 11
14.045
 21
17.7643
 31
0.0
  0
LINE
  8
0
 62
     0
 10
14.045
 20
17.7643
 30
0.0
 11
13.2443
 21
17.7643
 31
0.0
  0
LINE
  8
0
 62
     0
 10
13.2443
 20
17.7643
 30
0.0
 11
13.2443
 21
14.6651
 31
0.0
  0
LINE
  8
0
 62
     0
 10
13.2443
 20
14.6651
 30
0.0
 11
14.045
 21
14.6651
 31
0.0
  0
LINE
  8
0
 62
     0
 10
14.045
 20
14.6651
 30
0.0
 11
14.045
 21
14.0643
 31
0.0
  0
LINE
  8
0
 62
     0
 10
14.045
 20
14.0643
 30
0.0
 11
12.5195
 21
14.0643
 31
0.0
  0
LINE
  8
0
 62
     0
 10
12.5195
 20
14.0643
 30
0.0
 11
12.5195
 21
17.2944
 31
0.0
  0
LINE
  8
0
 62
     0
 10
12.5195
 20
17.2944
 30
0.0
 11
10.7942
 21
17.2944
 31
0.0
  0
LINE
  8
0
 62
     0
 10
10.7942
 20
17.2944
 30
0.0
 11
10.7942
 21
18.2149
 31
0.0
  0
LINE
  8
0
 62
     0
 10
10.7942
 20
18.2149
 30
0.0
 11
7.49515
 21
18.2149
 31
0.0
  0
LINE
  8
0
 62
     0
 10
7.49515
 20
18.2149
 30
0.0
 11
7.49515
 21
17.2944
 31
0.0
  0
LINE
  8
0
 62
     0
 10
7.49515
 20
17.2944
 30
0.0
 11
5.76986
 21
17.2944
 31
0.0
  0
LINE
  8
0
 62
     0
 10
5.76986
 20
17.2944
 30
0.0
 11
5.76986
 21
14.0643
 31
0.0
  0
LINE
  8
0
 62
     0
 10
5.76986
 20
14.0643
 30
0.0
 11
4.94439
 21
14.0643
 31
0.0
  0
LINE
  8
0
 62
     0
 10
4.94439
 20
14.0643
 30
0.0
 11
4.94439
 21
11.2655
 31
0.0
  0
LINE
  8
0
 62
     0
 10
4.94439
 20
11.2655
 30
0.0
 11
5.76986
 21
11.2655
 31
0.0
  0
LINE
  8
0
 62
     0
 10
5.76986
 20
11.2655
 30
0.0
 11
5.76986
 21
4.9954
 31
0.0
  0
LINE
  8
0
 62
     0
 10
5.76986
 20
4.9954
 30
0.0
 11
7.49515
 21
4.9954
 31
0.0
  0
LINE
  8
0
 62
     0
 10
7.49515
 20
4.9954
 30
0.0
 11
7.49515
 21
4.01422
 31
0.0
  0
LINE
  8
0
 62
     0
 10
7.49515
 20
4.01422
 30
0.0
 11
10.7942
 21
4.01422
 31
0.0
  0
LINE
  8
0
 62
     0
 10
10.7942
 20
4.01422
 30
0.0
 11
10.7942
 21
4.9954
 31
0.0
  0
LINE
  8
0
 62
     0
 10
10.7942
 20
4.9954
 30
0.0
 11
12.5195
 21
4.9954
 31
0.0
  0
LINE
  8
0
 62
     0
 10
12.5195
 20
4.9954
 30
0.0
 11
12.5195
 21
9.46436
 31
0.0
  0
LINE
  8
0
 62
     0
 10
12.5195
 20
9.46436
 30
0.0
 11
14.045
 21
9.46436
 31
0.0
  0
LINE
  8
0
 62
     0
 10
14.045
 20
9.46436
 30
0.0
 11
14.045
 21
8.86354
 31
0.0
  0
LINE
  8
0
 62
     0
 10
14.045
 20
8.86354
 30
0.0
 11
13.2443
 21
8.86354
 31
0.0
  0
LINE
  8
0
 62
     0
 10
13.2443
 20
8.86354
 30
0.0
 11
13.2443
 21
5.76432
 31
0.0
  0
LINE
  8
0
 62
     0
 10
13.2443
 20
5.76432
 30
0.0
 11
14.045
 21
5.76432
 31
0.0
  0
LINE
  8
0
 62
     0
 10
14.045
 20
5.76432
 30
0.0
 11
14.045
 21
4.76525
 31
0.0
  0
LINE
  8
0
 62
     0
 10
14.045
 20
4.76525
 30
0.0
 11
28.0445
 21
4.76525
 31
0.0
  0
LINE
  8
0
 62
     0
 10
28.0445
 20
4.76525
 30
0.0
 11
28.0445
 21
5.76432
 31
0.0
  0
LINE
  8
0
 62
     0
 10
28.0445
 20
5.76432
 30
0.0
 11
28.8451
 21
5.76432
 31
0.0
  0
LINE
  8
0
 62
     0
 10
28.8451
 20
5.76432
 30
0.0
 11
28.8451
 21
8.86354
 31
0.0
  0
LINE
  8
0
 62
     0
 10
28.8451
 20
8.86354
 30
0.0
 11
28.0445
 21
8.86354
 31
0.0
  0
LINE
  8
0
 62
     0
 10
28.0445
 20
8.86354
 30
0.0
 11
28.0445
 21
9.46436
 31
0.0
  0
LINE
  8
0
 62
     0
 10
28.0445
 20
9.46436
 30
0.0
 11
29.5699
 21
9.46436
 31
0.0
  0
LINE
  8
0
 62
     0
 10
29.5699
 20
9.46436
 30
0.0
 11
29.5699
 21
4.9954
 31
0.0
  0
LINE
  8
0
 62
     0
 10
29.5699
 20
4.9954
 30
0.0
 11
31.2939
 21
4.9954
 31
0.0
  0
LINE
  8
0
 62
     0
 10
31.2939
 20
4.9954
 30
0.0
 11
31.2939
 21
4.01422
 31
0.0
  0
LINE
  8
0
 62
     0
 10
31.2939
 20
4.01422
 30
0.0
 11
34.5943
 21
4.01422
 31
0.0
  0
LINE
  8
0
 62
     0
 10
34.5943
 20
4.01422
 30
0.0
 11
34.5943
 21
4.9954
 31
0.0
  0
LINE
  8
0
 62
     0
 10
34.5943
 20
4.9954
 30
0.0
 11
36.3195
 21
4.9954
 31
0.0
  0
LINE
  8
0
 62
     0
 10
36.3195
 20
4.9954
 30
0.0
 11
36.3195
 21
11.2655
 31
0.0
  0
LINE
  8
0
 62
     0
 10
36.3195
 20
11.2655
 30
0.0
 11
37.145
 21
11.2655
 31
0.0
  0
LINE
  8
0
 62
     0
 10
37.145
 20
11.2655
 30
0.0
 11
37.145
 21
14.0643
 31
0.0
  0
LINE
  8
0
 62
     0
 10
37.145
 20
14.0643
 30
0.0
 11
36.3195
 21
14.0643
 31
0.0
  0
LINE
  8
0
 62
     0
 10
36.3195
 20
14.0643
 30
0.0
 11
36.3195
 21
17.2944
 31
0.0
  0
LINE
  8
0
 62
     0
 10
36.3195
 20
17.2944
 30
0.0
 11
34.5943
 21
17.2944
 31
0.0
  0
LINE
  8
0
 62
     0
 10
34.5943
 20
17.2944
 30
0.0
 11
34.5943
 21
18.2149
 31
0.0
  0
LINE
  8
0
 62
     0
 10
34.5943
 20
18.2149
 30
0.0
 11
31.2939
 21
18.2149
 31
0.0
  0
LINE
  8
0
 62
     0
 10
31.2939
 20
18.2149
 30
0.0
 11
31.2939
 21
17.2944
 31
0.0
  0
LINE
  8
0
 62
     0
 10
31.2939
 20
17.2944
 30
0.0
 11
29.5699
 21
17.2944
 31
0.0
  0
LINE
  8
0
 62
     0
 10
29.5699
 20
17.2944
 30
0.0
 11
29.5699
 21
14.0643
 31
0.0
  0
LINE
  8
0
 62
     0
 10
29.5699
 20
14.0643
 30
0.0
 11
28.0445
 21
14.0643
 31
0.0
  0
LINE
  8
0
 62
     0
 10
28.0445
 20
14.0643
 30
0.0
 11
28.0445
 21
14.6651
 31
0.0
  0
LINE
  8
0
 62
     0
 10
28.0445
 20
14.6651
 30
0.0
 11
28.8451
 21
14.6651
 31
0.0
  0
LINE
  8
0
 62
     0
 10
28.8451
 20
14.6651
 30
0.0
 11
28.8451
 21
17.7643
 31
0.0
  0
LINE
  8
0
 62
     0
 10
28.8451
 20
17.7643
 30
0.0
 11
28.0445
 21
17.7643
 31
0.0
  0
LINE
  8
0
 62
     0
 10
28.0445
 20
17.7643
 30
0.0
 11
28.0445
 21
18.7647
 31
0.0
  0
LINE
  8
0
 62
     0
 10
28.0445
 20
18.7647
 30
0.0
 11
14.045
 21
18.7647
 31
0.0
  0
LINE
  8
0
 62
     0
 10
42.6201
 20
18.7647
 30
0.0
 11
42.6201
 21
17.7643
 31
0.0
  0
LINE
  8
0
 62
     0
 10
42.6201
 20
17.7643
 30
0.0
 11
41.8193
 21
17.7643
 31
0.0
  0
LINE
  8
0
 62
     0
 10
41.8193
 20
17.7643
 30
0.0
 11
41.8193
 21
14.6651
 31
0.0
  0
LINE
  8
0
 62
     0
 10
41.8193
 20
14.6651
 30
0.0
 11
42.6201
 21
14.6651
 31
0.0
  0
LINE
  8
0
 62
     0
 10
42.6201
 20
14.6651
 30
0.0
 11
42.6201
 21
8.86354
 31
0.0
  0
LINE
  8
0
 62
     0
 10
42.6201
 20
8.86354
 30
0.0
 11
41.8193
 21
8.86354
 31
0.0
  0
LINE
  8
0
 62
     0
 10
41.8193
 20
8.86354
 30
0.0
 11
41.8193
 21
5.76432
 31
0.0
  0
LINE
  8
0
 62
     0
 10
41.8193
 20
5.76432
 30
0.0
 11
42.6201
 21
5.76432
 31
0.0
  0
LINE
  8
0
 62
     0
 10
42.6201
 20
5.76432
 30
0.0
 11
42.6201
 21
4.76525
 31
0.0
  0
LINE
  8
0
 62
     0
 10
42.6201
 20
4.76525
 30
0.0
 11
56.6194
 21
4.76525
 31
0.0
  0
LINE
  8
0
 62
     0
 10
56.6194
 20
4.76525
 30
0.0
 11
56.6194
 21
5.76432
 31
0.0
  0
LINE
  8
0
 62
     0
 10
56.6194
 20
5.76432
 30
0.0
 11
57.4202
 21
5.76432
 31
0.0
  0
LINE
  8
0
 62
     0
 10
57.4202
 20
5.76432
 30
0.0
 11
57.4202
 21
8.86354
 31
0.0
  0
LINE
  8
0
 62
     0
 10
57.4202
 20
8.86354
 30
0.0
 11
56.6194
 21
8.86354
 31
0.0
  0
LINE
  8
0
 62
     0
 10
56.6194
 20
8.86354
 30
0.0
 11
56.6194
 21
14.6651
 31
0.0
  0
LINE
  8
0
 62
     0
 10
56.6194
 20
14.6651
 30
0.0
 11
57.4202
 21
14.6651
 31
0.0
  0
LINE
  8
0
 62
     0
 10
57.4202
 20
14.6651
 30
0.0
 11
57.4202
 21
17.7643
 31
0.0
  0
LINE
  8
0
 62
     0
 10
57.4202
 20
17.7643
 30
0.0
 11
56.6194
 21
17.7643
 31
0.0
  0
LINE
  8
0
 62
     0
 10
56.6194
 20
17.7643
 30
0.0
 11
56.6194
 21
18.7647
 31
0.0
  0
LINE
  8
0
 62
     0
 10
56.6194
 20
18.7647
 30
0.0
 11
42.6201
 21
18.7647
 31
0.0
  0
LINE
  8
0
 62
     0
 10
68.1701
 20
37.3902
 30
0.0
 11
68.1701
 21
36.5647
 31
0.0
  0
LINE
  8
0
 62
     0
 10
68.1701
 20
36.5647
 30
0.0
 11
61.9002
 21
36.5647
 31
0.0
  0
LINE
  8
0
 62
     0
 10
61.9002
 20
36.5647
 30
0.0
 11
61.9002
 21
34.8382
 31
0.0
  0
LINE
  8
0
 62
     0
 10
61.9002
 20
34.8382
 30
0.0
 11
60.9191
 21
34.8382
 31
0.0
  0
LINE
  8
0
 62
     0
 10
60.9191
 20
34.8382
 30
0.0
 11
60.9191
 21
31.5391
 31
0.0
  0
LINE
  8
0
 62
     0
 10
60.9191
 20
31.5391
 30
0.0
 11
61.9002
 21
31.5391
 31
0.0
  0
LINE
  8
0
 62
     0
 10
61.9002
 20
31.5391
 30
0.0
 11
61.9002
 21
29.8152
 31
0.0
  0
LINE
  8
0
 62
     0
 10
61.9002
 20
29.8152
 30
0.0
 11
66.3691
 21
29.8152
 31
0.0
  0
LINE
  8
0
 62
     0
 10
66.3691
 20
29.8152
 30
0.0
 11
66.3691
 21
28.2884
 31
0.0
  0
LINE
  8
0
 62
     0
 10
66.3691
 20
28.2884
 30
0.0
 11
65.7698
 21
28.2884
 31
0.0
  0
LINE
  8
0
 62
     0
 10
65.7698
 20
28.2884
 30
0.0
 11
65.7698
 21
29.089
 31
0.0
  0
LINE
  8
0
 62
     0
 10
65.7698
 20
29.089
 30
0.0
 11
62.6692
 21
29.089
 31
0.0
  0
LINE
  8
0
 62
     0
 10
62.6692
 20
29.089
 30
0.0
 11
62.6692
 21
28.2884
 31
0.0
  0
LINE
  8
0
 62
     0
 10
62.6692
 20
28.2884
 30
0.0
 11
61.6701
 21
28.2884
 31
0.0
  0
LINE
  8
0
 62
     0
 10
61.6701
 20
28.2884
 30
0.0
 11
61.6701
 21
14.2889
 31
0.0
  0
LINE
  8
0
 62
     0
 10
61.6701
 20
14.2889
 30
0.0
 11
62.6692
 21
14.2889
 31
0.0
  0
LINE
  8
0
 62
     0
 10
62.6692
 20
14.2889
 30
0.0
 11
62.6692
 21
13.4882
 31
0.0
  0
LINE
  8
0
 62
     0
 10
62.6692
 20
13.4882
 30
0.0
 11
65.7698
 21
13.4882
 31
0.0
  0
LINE
  8
0
 62
     0
 10
65.7698
 20
13.4882
 30
0.0
 11
65.7698
 21
14.2889
 31
0.0
  0
LINE
  8
0
 62
     0
 10
65.7698
 20
14.2889
 30
0.0
 11
66.3691
 21
14.2889
 31
0.0
  0
LINE
  8
0
 62
     0
 10
66.3691
 20
14.2889
 30
0.0
 11
66.3691
 21
12.7634
 31
0.0
  0
LINE
  8
0
 62
     0
 10
66.3691
 20
12.7634
 30
0.0
 11
61.9002
 21
12.7634
 31
0.0
  0
LINE
  8
0
 62
     0
 10
61.9002
 20
12.7634
 30
0.0
 11
61.9002
 21
11.0395
 31
0.0
  0
LINE
  8
0
 62
     0
 10
61.9002
 20
11.0395
 30
0.0
 11
60.9191
 21
11.0395
 31
0.0
  0
LINE
  8
0
 62
     0
 10
60.9191
 20
11.0395
 30
0.0
 11
60.9191
 21
7.73906
 31
0.0
  0
LINE
  8
0
 62
     0
 10
60.9191
 20
7.73906
 30
0.0
 11
61.9002
 21
7.73906
 31
0.0
  0
LINE
  8
0
 62
     0
 10
61.9002
 20
7.73906
 30
0.0
 11
61.9002
 21
6.01377
 31
0.0
  0
LINE
  8
0
 62
     0
 10
61.9002
 20
6.01377
 30
0.0
 11
68.1701
 21
6.01377
 31
0.0
  0
LINE
  8
0
 62
     0
 10
68.1701
 20
6.01377
 30
0.0
 11
68.1701
 21
5.1883
 31
0.0
  0
LINE
  8
0
 62
     0
 10
68.1701
 20
5.1883
 30
0.0
 11
70.969
 21
5.1883
 31
0.0
  0
LINE
  8
0
 62
     0
 10
70.969
 20
5.1883
 30
0.0
 11
70.969
 21
6.01377
 31
0.0
  0
LINE
  8
0
 62
     0
 10
70.969
 20
6.01377
 30
0.0
 11
74.199
 21
6.01377
 31
0.0
  0
LINE
  8
0
 62
     0
 10
74.199
 20
6.01377
 30
0.0
 11
74.199
 21
7.73906
 31
0.0
  0
LINE
  8
0
 62
     0
 10
74.199
 20
7.73906
 30
0.0
 11
75.1198
 21
7.73906
 31
0.0
  0
LINE
  8
0
 62
     0
 10
75.1198
 20
7.73906
 30
0.0
 11
75.1198
 21
11.0395
 31
0.0
  0
LINE
  8
0
 62
     0
 10
75.1198
 20
11.0395
 30
0.0
 11
74.199
 21
11.0395
 31
0.0
  0
LINE
  8
0
 62
     0
 10
74.199
 20
11.0395
 30
0.0
 11
74.199
 21
12.7634
 31
0.0
  0
LINE
  8
0
 62
     0
 10
74.199
 20
12.7634
 30
0.0
 11
70.969
 21
12.7634
 31
0.0
  0
LINE
  8
0
 62
     0
 10
70.969
 20
12.7634
 30
0.0
 11
70.969
 21
14.2889
 31
0.0
  0
LINE
  8
0
 62
     0
 10
70.969
 20
14.2889
 30
0.0
 11
71.5698
 21
14.2889
 31
0.0
  0
LINE
  8
0
 62
     0
 10
71.5698
 20
14.2889
 30
0.0
 11
71.5698
 21
13.4882
 31
0.0
  0
LINE
  8
0
 62
     0
 10
71.5698
 20
13.4882
 30
0.0
 11
74.6689
 21
13.4882
 31
0.0
  0
LINE
  8
0
 62
     0
 10
74.6689
 20
13.4882
 30
0.0
 11
74.6689
 21
14.2889
 31
0.0
  0
LINE
  8
0
 62
     0
 10
74.6689
 20
14.2889
 30
0.0
 11
75.6694
 21
14.2889
 31
0.0
  0
LINE
  8
0
 62
     0
 10
75.6694
 20
14.2889
 30
0.0
 11
75.6694
 21
28.2884
 31
0.0
  0
LINE
  8
0
 62
     0
 10
75.6694
 20
28.2884
 30
0.0
 11
74.6689
 21
28.2884
 31
0.0
  0
LINE
  8
0
 62
     0
 10
74.6689
 20
28.2884
 30
0.0
 11
74.6689
 21
29.089
 31
0.0
  0
LINE
  8
0
 62
     0
 10
74.6689
 20
29.089
 30
0.0
 11
71.5698
 21
29.089
 31
0.0
  0
LINE
  8
0
 62
     0
 10
71.5698
 20
29.089
 30
0.0
 11
71.5698
 21
28.2884
 31
0.0
  0
LINE
  8
0
 62
     0
 10
71.5698
 20
28.2884
 30
0.0
 11
70.969
 21
28.2884
 31
0.0
  0
LINE
  8
0
 62
     0
 10
70.969
 20
28.2884
 30
0.0
 11
70.969
 21
29.8152
 31
0.0
  0
LINE
  8
0
 62
     0
 10
70.969
 20
29.8152
 30
0.0
 11
74.199
 21
29.8152
 31
0.0
  0
LINE
  8
0
 62
     0
 10
74.199
 20
29.8152
 30
0.0
 11
74.199
 21
31.5391
 31
0.0
  0
LINE
  8
0
 62
     0
 10
74.199
 20
31.5391
 30
0.0
 11
75.1198
 21
31.5391
 31
0.0
  0
LINE
  8
0
 62
     0
 10
75.1198
 20
31.5391
 30
0.0
 11
75.1198
 21
34.8382
 31
0.0
  0
LINE
  8
0
 62
     0
 10
75.1198
 20
34.8382
 30
0.0
 11
74.199
 21
34.8382
 31
0.0
  0
LINE
  8
0
 62
     0
 10
74.199
 20
34.8382
 30
0.0
 11
74.199
 21
36.5647
 31
0.0
  0
LINE
  8
0
 62
     0
 10
74.199
 20
36.5647
 30
0.0
 11
70.969
 21
36.5647
 31
0.0
  0
LINE
  8
0
 62
     0
 10
70.969
 20
36.5647
 30
0.0
 11
70.969
 21
37.3902
 31
0.0
  0
LINE
  8
0
 62
     0
 10
70.969
 20
37.3902
 30
0.0
 11
68.1701
 21
37.3902
 31
0.0
  0
LINE
  8
0
 62
     0
 10
42.6201
 20
37.8146
 30
0.0
 11
42.6201
 21
36.8141
 31
0.0
  0
LINE
  8
0
 62
     0
 10
42.6201
 20
36.8141
 30
0.0
 11
41.8193
 21
36.8141
 31
0.0
  0
LINE
  8
0
 62
     0
 10
41.8193
 20
36.8141
 30
0.0
 11
41.8193
 21
33.7151
 31
0.0
  0
LINE
  8
0
 62
     0
 10
41.8193
 20
33.7151
 30
0.0
 11
42.6201
 21
33.7151
 31
0.0
  0
LINE
  8
0
 62
     0
 10
42.6201
 20
33.7151
 30
0.0
 11
42.6201
 21
27.9135
 31
0.0
  0
LINE
  8
0
 62
     0
 10
42.6201
 20
27.9135
 30
0.0
 11
41.8193
 21
27.9135
 31
0.0
  0
LINE
  8
0
 62
     0
 10
41.8193
 20
27.9135
 30
0.0
 11
41.8193
 21
24.8143
 31
0.0
  0
LINE
  8
0
 62
     0
 10
41.8193
 20
24.8143
 30
0.0
 11
42.6201
 21
24.8143
 31
0.0
  0
LINE
  8
0
 62
     0
 10
42.6201
 20
24.8143
 30
0.0
 11
42.6201
 21
23.8153
 31
0.0
  0
LINE
  8
0
 62
     0
 10
42.6201
 20
23.8153
 30
0.0
 11
56.6194
 21
23.8153
 31
0.0
  0
LINE
  8
0
 62
     0
 10
56.6194
 20
23.8153
 30
0.0
 11
56.6194
 21
24.8143
 31
0.0
  0
LINE
  8
0
 62
     0
 10
56.6194
 20
24.8143
 30
0.0
 11
57.4202
 21
24.8143
 31
0.0
  0
LINE
  8
0
 62
     0
 10
57.4202
 20
24.8143
 30
0.0
 11
57.4202
 21
27.9135
 31
0.0
  0
LINE
  8
0
 62
     0
 10
57.4202
 20
27.9135
 30
0.0
 11
56.6194
 21
27.9135
 31
0.0
  0
LINE
  8
0
 62
     0
 10
56.6194
 20
27.9135
 30
0.0
 11
56.6194
 21
33.7151
 31
0.0
  0
LINE
  8
0
 62
     0
 10
56.6194
 20
33.7151
 30
0.0
 11
57.4202
 21
33.7151
 31
0.0
  0
LINE
  8
0
 62
     0
 10
57.4202
 20
33.7151
 30
0.0
 11
57.4202
 21
36.8141
 31
0.0
  0
LINE
  8
0
 62
     0
 10
57.4202
 20
36.8141
 30
0.0
 11
56.6194
 21
36.8141
 31
0.0
  0
LINE
  8
0
 62
     0
 10
56.6194
 20
36.8141
 30
0.0
 11
56.6194
 21
37.8146
 31
0.0
  0
LINE
  8
0
 62
     0
 10
56.6194
 20
37.8146
 30
0.0
 11
42.6201
 21
37.8146
 31
0.0
  0
LINE
  8
0
 62
     0
 10
23.57
 20
37.8146
 30
0.0
 11
23.57
 21
36.8141
 31
0.0
  0
LINE
  8
0
 62
     0
 10
23.57
 20
36.8141
 30
0.0
 11
22.7693
 21
36.8141
 31
0.0
  0
LINE
  8
0
 62
     0
 10
22.7693
 20
36.8141
 30
0.0
 11
22.7693
 21
33.7151
 31
0.0
  0
LINE
  8
0
 62
     0
 10
22.7693
 20
33.7151
 30
0.0
 11
23.57
 21
33.7151
 31
0.0
  0
LINE
  8
0
 62
     0
 10
23.57
 20
33.7151
 30
0.0
 11
23.57
 21
27.9135
 31
0.0
  0
LINE
  8
0
 62
     0
 10
23.57
 20
27.9135
 30
0.0
 11
22.7693
 21
27.9135
 31
0.0
  0
LINE
  8
0
 62
     0
 10
22.7693
 20
27.9135
 30
0.0
 11
22.7693
 21
24.8143
 31
0.0
  0
LINE
  8
0
 62
     0
 10
22.7693
 20
24.8143
 30
0.0
 11
23.57
 21
24.8143
 31
0.0
  0
LINE
  8
0
 62
     0
 10
23.57
 20
24.8143
 30
0.0
 11
23.57
 21
23.8153
 31
0.0
  0
LINE
  8
0
 62
     0
 10
23.57
 20
23.8153
 30
0.0
 11
37.5694
 21
23.8153
 31
0.0
  0
LINE
  8
0
 62
     0
 10
37.5694
 20
23.8153
 30
0.0
 11
37.5694
 21
24.8143
 31
0.0
  0
LINE
  8
0
 62
     0
 10
37.5694
 20
24.8143
 30
0.0
 11
38.3702
 21
24.8143
 31
0.0
  0
LINE
  8
0
 62
     0
 10
38.3702
 20
24.8143
 30
0.0
 11
38.3702
 21
27.9135
 31
0.0
  0
LINE
  8
0
 62
     0
 10
38.3702
 20
27.9135
 30
0.0
 11
37.5694
 21
27.9135
 31
0.0
  0
LINE
  8
0
 62
     0
 10
37.5694
 20
27.9135
 30
0.0
 11
37.5694
 21
33.7151
 31
0.0
  0
LINE
  8
0
 62
     0
 10
37.5694
 20
33.7151
 30
0.0
 11
38.3702
 21
33.7151
 31
0.0
  0
LINE
  8
0
 62
     0
 10
38.3702
 20
33.7151
 30
0.0
 11
38.3702
 21
36.8141
 31
0.0
  0
LINE
  8
0
 62
     0
 10
38.3702
 20
36.8141
 30
0.0
 11
37.5694
 21
36.8141
 31
0.0
  0
LINE
  8
0
 62
     0
 10
37.5694
 20
36.8141
 30
0.0
 11
37.5694
 21
37.8146
 31
0.0
  0
LINE
  8
0
 62
     0
 10
37.5694
 20
37.8146
 30
0.0
 11
23.57
 21
37.8146
 31
0.0
  0
LINE
  8
0
 62
     0
 10
4.51997
 20
37.8146
 30
0.0
 11
4.51997
 21
36.8141
 31
0.0
  0
LINE
  8
0
 62
     0
 10
4.51997
 20
36.8141
 30
0.0
 11
3.71934
 21
36.8141
 31
0.0
  0
LINE
  8
0
 62
     0
 10
3.71934
 20
36.8141
 30
0.0
 11
3.71934
 21
33.7151
 31
0.0
  0
LINE
  8
0
 62
     0
 10
3.71934
 20
33.7151
 30
0.0
 11
4.51997
 21
33.7151
 31
0.0
  0
LINE
  8
0
 62
     0
 10
4.51997
 20
33.7151
 30
0.0
 11
4.51997
 21
27.9135
 31
0.0
  0
LINE
  8
0
 62
     0
 10
4.51997
 20
27.9135
 30
0.0
 11
3.71934
 21
27.9135
 31
0.0
  0
LINE
  8
0
 62
     0
 10
3.71934
 20
27.9135
 30
0.0
 11
3.71934
 21
24.8143
 31
0.0
  0
LINE
  8
0
 62
     0
 10
3.71934
 20
24.8143
 30
0.0
 11
4.51997
 21
24.8143
 31
0.0
  0
LINE
  8
0
 62
     0
 10
4.51997
 20
24.8143
 30
0.0
 11
4.51997
 21
23.8153
 31
0.0
  0
LINE
  8
0
 62
     0
 10
4.51997
 20
23.8153
 30
0.0
 11
18.5195
 21
23.8153
 31
0.0
  0
LINE
  8
0
 62
     0
 10
18.5195
 20
23.8153
 30
0.0
 11
18.5195
 21
24.8143
 31
0.0
  0
LINE
  8
0
 62
     0
 10
18.5195
 20
24.8143
 30
0.0
 11
19.3201
 21
24.8143
 31
0.0
  0
LINE
  8
0
 62
     0
 10
19.3201
 20
24.8143
 30
0.0
 11
19.3201
 21
27.9135
 31
0.0
  0
LINE
  8
0
 62
     0
 10
19.3201
 20
27.9135
 30
0.0
 11
18.5195
 21
27.9135
 31
0.0
  0
LINE
  8
0
 62
     0
 10
18.5195
 20
27.9135
 30
0.0
 11
18.5195
 21
33.7151
 31
0.0
  0
LINE
  8
0
 62
     0
 10
18.5195
 20
33.7151
 30
0.0
 11
19.3201
 21
33.7151
 31
0.0
  0
LINE
  8
0
 62
     0
 10
19.3201
 20
33.7151
 30
0.0
 11
19.3201
 21
36.8141
 31
0.0
  0
LINE
  8
0
 62
     0
 10
19.3201
 20
36.8141
 30
0.0
 11
18.5195
 21
36.8141
 31
0.0
  0
LINE
  8
0
 62
     0
 10
18.5195
 20
36.8141
 30
0.0
 11
18.5195
 21
37.8146
 31
0.0
  0
LINE
  8
0
 62
     0
 10
18.5195
 20
37.8146
 30
0.0
 11
4.51997
 21
37.8146
 31
0.0
  0
LINE
  8
0
 62
     0
 10
42.6201
 20
56.8635
 30
0.0
 11
42.6201
 21
55.8641
 31
0.0
  0
LINE
  8
0
 62
     0
 10
42.6201
 20
55.8641
 30
0.0
 11
41.8193
 21
55.8641
 31
0.0
  0
LINE
  8
0
 62
     0
 10
41.8193
 20
55.8641
 30
0.0
 11
41.8193
 21
52.765
 31
0.0
  0
LINE
  8
0
 62
     0
 10
41.8193
 20
52.765
 30
0.0
 11
42.6201
 21
52.765
 31
0.0
  0
LINE
  8
0
 62
     0
 10
42.6201
 20
52.765
 30
0.0
 11
42.6201
 21
46.9635
 31
0.0
  0
LINE
  8
0
 62
     0
 10
42.6201
 20
46.9635
 30
0.0
 11
41.8193
 21
46.9635
 31
0.0
  0
LINE
  8
0
 62
     0
 10
41.8193
 20
46.9635
 30
0.0
 11
41.8193
 21
43.8644
 31
0.0
  0
LINE
  8
0
 62
     0
 10
41.8193
 20
43.8644
 30
0.0
 11
42.6201
 21
43.8644
 31
0.0
  0
LINE
  8
0
 62
     0
 10
42.6201
 20
43.8644
 30
0.0
 11
42.6201
 21
42.8639
 31
0.0
  0
LINE
  8
0
 62
     0
 10
42.6201
 20
42.8639
 30
0.0
 11
56.6194
 21
42.8639
 31
0.0
  0
LINE
  8
0
 62
     0
 10
56.6194
 20
42.8639
 30
0.0
 11
56.6194
 21
43.8644
 31
0.0
  0
LINE
  8
0
 62
     0
 10
56.6194
 20
43.8644
 30
0.0
 11
57.4202
 21
43.8644
 31
0.0
  0
LINE
  8
0
 62
     0
 10
57.4202
 20
43.8644
 30
0.0
 11
57.4202
 21
46.9635
 31
0.0
  0
LINE
  8
0
 62
     0
 10
57.4202
 20
46.9635
 30
0.0
 11
56.6194
 21
46.9635
 31
0.0
  0
LINE
  8
0
 62
     0
 10
56.6194
 20
46.9635
 30
0.0
 11
56.6194
 21
52.765
 31
0.0
  0
LINE
  8
0
 62
     0
 10
56.6194
 20
52.765
 30
0.0
 11
57.4202
 21
52.765
 31
0.0
  0
LINE
  8
0
 62
     0
 10
57.4202
 20
52.765
 30
0.0
 11
57.4202
 21
55.8641
 31
0.0
  0
LINE
  8
0
 62
     0
 10
57.4202
 20
55.8641
 30
0.0
 11
56.6194
 21
55.8641
 31
0.0
  0
LINE
  8
0
 62
     0
 10
56.6194
 20
55.8641
 30
0.0
 11
56.6194
 21
56.8635
 31
0.0
  0
LINE
  8
0
 62
     0
 10
56.6194
 20
56.8635
 30
0.0
 11
42.6201
 21
56.8635
 31
0.0
  0
LINE
  8
0
 62
     0
 10
23.57
 20
56.8635
 30
0.0
 11
23.57
 21
55.8641
 31
0.0
  0
LINE
  8
0
 62
     0
 10
23.57
 20
55.8641
 30
0.0
 11
22.7693
 21
55.8641
 31
0.0
  0
LINE
  8
0
 62
     0
 10
22.7693
 20
55.8641
 30
0.0
 11
22.7693
 21
52.765
 31
0.0
  0
LINE
  8
0
 62
     0
 10
22.7693
 20
52.765
 30
0.0
 11
23.57
 21
52.765
 31
0.0
  0
LINE
  8
0
 62
     0
 10
23.57
 20
52.765
 30
0.0
 11
23.57
 21
46.9635
 31
0.0
  0
LINE
  8
0
 62
     0
 10
23.57
 20
46.9635
 30
0.0
 11
22.7693
 21
46.9635
 31
0.0
  0
LINE
  8
0
 62
     0
 10
22.7693
 20
46.9635
 30
0.0
 11
22.7693
 21
43.8644
 31
0.0
  0
LINE
  8
0
 62
     0
 10
22.7693
 20
43.8644
 30
0.0
 11
23.57
 21
43.8644
 31
0.0
  0
LINE
  8
0
 62
     0
 10
23.57
 20
43.8644
 30
0.0
 11
23.57
 21
42.8639
 31
0.0
  0
LINE
  8
0
 62
     0
 10
23.57
 20
42.8639
 30
0.0
 11
37.5694
 21
42.8639
 31
0.0
  0
LINE
  8
0
 62
     0
 10
37.5694
 20
42.8639
 30
0.0
 11
37.5694
 21
43.8644
 31
0.0
  0
LINE
  8
0
 62
     0
 10
37.5694
 20
43.8644
 30
0.0
 11
38.3702
 21
43.8644
 31
0.0
  0
LINE
  8
0
 62
     0
 10
38.3702
 20
43.8644
 30
0.0
 11
38.3702
 21
46.9635
 31
0.0
  0
LINE
  8
0
 62
     0
 10
38.3702
 20
46.9635
 30
0.0
 11
37.5694
 21
46.9635
 31
0.0
  0
LINE
  8
0
 62
     0
 10
37.5694
 20
46.9635
 30
0.0
 11
37.5694
 21
52.765
 31
0.0
  0
LINE
  8
0
 62
     0
 10
37.5694
 20
52.765
 30
0.0
 11
38.3702
 21
52.765
 31
0.0
  0
LINE
  8
0
 62
     0
 10
38.3702
 20
52.765
 30
0.0
 11
38.3702
 21
55.8641
 31
0.0
  0
LINE
  8
0
 62
     0
 10
38.3702
 20
55.8641
 30
0.0
 11
37.5694
 21
55.8641
 31
0.0
  0
LINE
  8
0
 62
     0
 10
37.5694
 20
55.8641
 30
0.0
 11
37.5694
 21
56.8635
 31
0.0
  0
LINE
  8
0
 62
     0
 10
37.5694
 20
56.8635
 30
0.0
 11
23.57
 21
56.8635
 31
0.0
  0
LINE
  8
0
 62
     0
 10
4.51997
 20
56.8635
 30
0.0
 11
4.51997
 21
55.8641
 31
0.0
  0
LINE
  8
0
 62
     0
 10
4.51997
 20
55.8641
 30
0.0
 11
3.71934
 21
55.8641
 31
0.0
  0
LINE
  8
0
 62
     0
 10
3.71934
 20
55.8641
 30
0.0
 11
3.71934
 21
52.765
 31
0.0
  0
LINE
  8
0
 62
     0
 10
3.71934
 20
52.765
 30
0.0
 11
4.51997
 21
52.765
 31
0.0
  0
LINE
  8
0
 62
     0
 10
4.51997
 20
52.765
 30
0.0
 11
4.51997
 21
46.9635
 31
0.0
  0
LINE
  8
0
 62
     0
 10
4.51997
 20
46.9635
 30
0.0
 11
3.71934
 21
46.9635
 31
0.0
  0
LINE
  8
0
 62
     0
 10
3.71934
 20
46.9635
 30
0.0
 11
3.71934
 21
43.8644
 31
0.0
  0
LINE
  8
0
 62
     0
 10
3.71934
 20
43.8644
 30
0.0
 11
4.51997
 21
43.8644
 31
0.0
  0
LINE
  8
0
 62
     0
 10
4.51997
 20
43.8644
 30
0.0
 11
4.51997
 21
42.8639
 31
0.0
  0
LINE
  8
0
 62
     0
 10
4.51997
 20
42.8639
 30
0.0
 11
18.5195
 21
42.8639
 31
0.0
  0
LINE
  8
0
 62
     0
 10
18.5195
 20
42.8639
 30
0.0
 11
18.5195
 21
43.8644
 31
0.0
  0
LINE
  8
0
 62
     0
 10
18.5195
 20
43.8644
 30
0.0
 11
19.3201
 21
43.8644
 31
0.0
  0
LINE
  8
0
 62
     0
 10
19.3201
 20
43.8644
 30
0.0
 11
19.3201
 21
46.9635
 31
0.0
  0
LINE
  8
0
 62
     0
 10
19.3201
 20
46.9635
 30
0.0
 11
18.5195
 21
46.9635
 31
0.0
  0
LINE
  8
0
 62
     0
 10
18.5195
 20
46.9635
 30
0.0
 11
18.5195
 21
52.765
 31
0.0
  0
LINE
  8
0
 62
     0
 10
18.5195
 20
52.765
 30
0.0
 11
19.3201
 21
52.765
 31
0.0
  0
LINE
  8
0
 62
     0
 10
19.3201
 20
52.765
 30
0.0
 11
19.3201
 21
55.8641
 31
0.0
  0
LINE
  8
0
 62
     0
 10
19.3201
 20
55.8641
 30
0.0
 11
18.5195
 21
55.8641
 31
0.0
  0
LINE
  8
0
 62
     0
 10
18.5195
 20
55.8641
 30
0.0
 11
18.5195
 21
56.8635
 31
0.0
  0
LINE
  8
0
 62
     0
 10
18.5195
 20
56.8635
 30
0.0
 11
4.51997
 21
56.8635
 31
0.0
  0
LINE
  8
0
 62
     0
 10
68.1701
 20
75.4888
 30
0.0
 11
68.1701
 21
74.6637
 31
0.0
  0
LINE
  8
0
 62
     0
 10
68.1701
 20
74.6637
 30
0.0
 11
61.9002
 21
74.6637
 31
0.0
  0
LINE
  8
0
 62
     0
 10
61.9002
 20
74.6637
 30
0.0
 11
61.9002
 21
72.9382
 31
0.0
  0
LINE
  8
0
 62
     0
 10
61.9002
 20
72.9382
 30
0.0
 11
60.9191
 21
72.9382
 31
0.0
  0
LINE
  8
0
 62
     0
 10
60.9191
 20
72.9382
 30
0.0
 11
60.9191
 21
69.639
 31
0.0
  0
LINE
  8
0
 62
     0
 10
60.9191
 20
69.639
 30
0.0
 11
61.9002
 21
69.639
 31
0.0
  0
LINE
  8
0
 62
     0
 10
61.9002
 20
69.639
 30
0.0
 11
61.9002
 21
67.914
 31
0.0
  0
LINE
  8
0
 62
     0
 10
61.9002
 20
67.914
 30
0.0
 11
66.3691
 21
67.914
 31
0.0
  0
LINE
  8
0
 62
     0
 10
66.3691
 20
67.914
 30
0.0
 11
66.3691
 21
66.3885
 31
0.0
  0
LINE
  8
0
 62
     0
 10
66.3691
 20
66.3885
 30
0.0
 11
65.7698
 21
66.3885
 31
0.0
  0
LINE
  8
0
 62
     0
 10
65.7698
 20
66.3885
 30
0.0
 11
65.7698
 21
67.189
 31
0.0
  0
LINE
  8
0
 62
     0
 10
65.7698
 20
67.189
 30
0.0
 11
62.6692
 21
67.189
 31
0.0
  0
LINE
  8
0
 62
     0
 10
62.6692
 20
67.189
 30
0.0
 11
62.6692
 21
66.3885
 31
0.0
  0
LINE
  8
0
 62
     0
 10
62.6692
 20
66.3885
 30
0.0
 11
61.6701
 21
66.3885
 31
0.0
  0
LINE
  8
0
 62
     0
 10
61.6701
 20
66.3885
 30
0.0
 11
61.6701
 21
52.3889
 31
0.0
  0
LINE
  8
0
 62
     0
 10
61.6701
 20
52.3889
 30
0.0
 11
62.6692
 21
52.3889
 31
0.0
  0
LINE
  8
0
 62
     0
 10
62.6692
 20
52.3889
 30
0.0
 11
62.6692
 21
51.5881
 31
0.0
  0
LINE
  8
0
 62
     0
 10
62.6692
 20
51.5881
 30
0.0
 11
65.7698
 21
51.5881
 31
0.0
  0
LINE
  8
0
 62
     0
 10
65.7698
 20
51.5881
 30
0.0
 11
65.7698
 21
52.3889
 31
0.0
  0
LINE
  8
0
 62
     0
 10
65.7698
 20
52.3889
 30
0.0
 11
66.3691
 21
52.3889
 31
0.0
  0
LINE
  8
0
 62
     0
 10
66.3691
 20
52.3889
 30
0.0
 11
66.3691
 21
50.8635
 31
0.0
  0
LINE
  8
0
 62
     0
 10
66.3691
 20
50.8635
 30
0.0
 11
61.9002
 21
50.8635
 31
0.0
  0
LINE
  8
0
 62
     0
 10
61.9002
 20
50.8635
 30
0.0
 11
61.9002
 21
49.1395
 31
0.0
  0
LINE
  8
0
 62
     0
 10
61.9002
 20
49.1395
 30
0.0
 11
60.9191
 21
49.1395
 31
0.0
  0
LINE
  8
0
 62
     0
 10
60.9191
 20
49.1395
 30
0.0
 11
60.9191
 21
45.8392
 31
0.0
  0
LINE
  8
0
 62
     0
 10
60.9191
 20
45.8392
 30
0.0
 11
61.9002
 21
45.8392
 31
0.0
  0
LINE
  8
0
 62
     0
 10
61.9002
 20
45.8392
 30
0.0
 11
61.9002
 21
44.1138
 31
0.0
  0
LINE
  8
0
 62
     0
 10
61.9002
 20
44.1138
 30
0.0
 11
68.1701
 21
44.1138
 31
0.0
  0
LINE
  8
0
 62
     0
 10
68.1701
 20
44.1138
 30
0.0
 11
68.1701
 21
43.2883
 31
0.0
  0
LINE
  8
0
 62
     0
 10
68.1701
 20
43.2883
 30
0.0
 11
70.969
 21
43.2883
 31
0.0
  0
LINE
  8
0
 62
     0
 10
70.969
 20
43.2883
 30
0.0
 11
70.969
 21
44.1138
 31
0.0
  0
LINE
  8
0
 62
     0
 10
70.969
 20
44.1138
 30
0.0
 11
74.199
 21
44.1138
 31
0.0
  0
LINE
  8
0
 62
     0
 10
74.199
 20
44.1138
 30
0.0
 11
74.199
 21
45.8392
 31
0.0
  0
LINE
  8
0
 62
     0
 10
74.199
 20
45.8392
 30
0.0
 11
75.1198
 21
45.8392
 31
0.0
  0
LINE
  8
0
 62
     0
 10
75.1198
 20
45.8392
 30
0.0
 11
75.1198
 21
49.1395
 31
0.0
  0
LINE
  8
0
 62
     0
 10
75.1198
 20
49.1395
 30
0.0
 11
74.199
 21
49.1395
 31
0.0
  0
LINE
  8
0
 62
     0
 10
74.199
 20
49.1395
 30
0.0
 11
74.199
 21
50.8635
 31
0.0
  0
LINE
  8
0
 62
     0
 10
74.199
 20
50.8635
 30
0.0
 11
70.969
 21
50.8635
 31
0.0
  0
LINE
  8
0
 62
     0
 10
70.969
 20
50.8635
 30
0.0
 11
70.969
 21
52.3889
 31
0.0
  0
LINE
  8
0
 62
     0
 10
70.969
 20
52.3889
 30
0.0
 11
71.5698
 21
52.3889
 31
0.0
  0
LINE
  8
0
 62
     0
 10
71.5698
 20
52.3889
 30
0.0
 11
71.5698
 21
51.5881
 31
0.0
  0
LINE
  8
0
 62
     0
 10
71.5698
 20
51.5881
 30
0.0
 11
74.6689
 21
51.5881
 31
0.0
  0
LINE
  8
0
 62
     0
 10
74.6689
 20
51.5881
 30
0.0
 11
74.6689
 21
52.3889
 31
0.0
  0
LINE
  8
0
 62
     0
 10
74.6689
 20
52.3889
 30
0.0
 11
75.6694
 21
52.3889
 31
0.0
  0
LINE
  8
0
 62
     0
 10
75.6694
 20
52.3889
 30
0.0
 11
75.6694
 21
66.3885
 31
0.0
  0
LINE
  8
0
 62
     0
 10
75.6694
 20
66.3885
 30
0.0
 11
74.6689
 21
66.3885
 31
0.0
  0
LINE
  8
0
 62
     0
 10
74.6689
 20
66.3885
 30
0.0
 11
74.6689
 21
67.189
 31
0.0
  0
LINE
  8
0
 62
     0
 10
74.6689
 20
67.189
 30
0.0
 11
71.5698
 21
67.189
 31
0.0
  0
LINE
  8
0
 62
     0
 10
71.5698
 20
67.189
 30
0.0
 11
71.5698
 21
66.3885
 31
0.0
  0
LINE
  8
0
 62
     0
 10
71.5698
 20
66.3885
 30
0.0
 11
70.969
 21
66.3885
 31
0.0
  0
LINE
  8
0
 62
     0
 10
70.969
 20
66.3885
 30
0.0
 11
70.969
 21
67.914
 31
0.0
  0
LINE
  8
0
 62
     0
 10
70.969
 20
67.914
 30
0.0
 11
74.199
 21
67.914
 31
0.0
  0
LINE
  8
0
 62
     0
 10
74.199
 20
67.914
 30
0.0
 11
74.199
 21
69.639
 31
0.0
  0
LINE
  8
0
 62
     0
 10
74.199
 20
69.639
 30
0.0
 11
75.1198
 21
69.639
 31
0.0
  0
LINE
  8
0
 62
     0
 10
75.1198
 20
69.639
 30
0.0
 11
75.1198
 21
72.9382
 31
0.0
  0
LINE
  8
0
 62
     0
 10
75.1198
 20
72.9382
 30
0.0
 11
74.199
 21
72.9382
 31
0.0
  0
LINE
  8
0
 62
     0
 10
74.199
 20
72.9382
 30
0.0
 11
74.199
 21
74.6637
 31
0.0
  0
LINE
  8
0
 62
     0
 10
74.199
 20
74.6637
 30
0.0
 11
70.969
 21
74.6637
 31
0.0
  0
LINE
  8
0
 62
     0
 10
70.969
 20
74.6637
 30
0.0
 11
70.969
 21
75.4888
 31
0.0
  0
LINE
  8
0
 62
     0
 10
70.969
 20
75.4888
 30
0.0
 11
68.1701
 21
75.4888
 31
0.0
  0
LINE
  8
0
 62
     0
 10
42.6201
 20
75.9135
 30
0.0
 11
42.6201
 21
74.9141
 31
0.0
  0
LINE
  8
0
 62
     0
 10
42.6201
 20
74.9141
 30
0.0
 11
41.8193
 21
74.9141
 31
0.0
  0
LINE
  8
0
 62
     0
 10
41.8193
 20
74.9141
 30
0.0
 11
41.8193
 21
71.8136
 31
0.0
  0
LINE
  8
0
 62
     0
 10
41.8193
 20
71.8136
 30
0.0
 11
42.6201
 21
71.8136
 31
0.0
  0
LINE
  8
0
 62
     0
 10
42.6201
 20
71.8136
 30
0.0
 11
42.6201
 21
66.0135
 31
0.0
  0
LINE
  8
0
 62
     0
 10
42.6201
 20
66.0135
 30
0.0
 11
41.8193
 21
66.0135
 31
0.0
  0
LINE
  8
0
 62
     0
 10
41.8193
 20
66.0135
 30
0.0
 11
41.8193
 21
62.9144
 31
0.0
  0
LINE
  8
0
 62
     0
 10
41.8193
 20
62.9144
 30
0.0
 11
42.6201
 21
62.9144
 31
0.0
  0
LINE
  8
0
 62
     0
 10
42.6201
 20
62.9144
 30
0.0
 11
42.6201
 21
61.9139
 31
0.0
  0
LINE
  8
0
 62
     0
 10
42.6201
 20
61.9139
 30
0.0
 11
56.6194
 21
61.9139
 31
0.0
  0
LINE
  8
0
 62
     0
 10
56.6194
 20
61.9139
 30
0.0
 11
56.6194
 21
62.9144
 31
0.0
  0
LINE
  8
0
 62
     0
 10
56.6194
 20
62.9144
 30
0.0
 11
57.4202
 21
62.9144
 31
0.0
  0
LINE
  8
0
 62
     0
 10
57.4202
 20
62.9144
 30
0.0
 11
57.4202
 21
66.0135
 31
0.0
  0
LINE
  8
0
 62
     0
 10
57.4202
 20
66.0135
 30
0.0
 11
56.6194
 21
66.0135
 31
0.0
  0
LINE
  8
0
 62
     0
 10
56.6194
 20
66.0135
 30
0.0
 11
56.6194
 21
71.8136
 31
0.0
  0
LINE
  8
0
 62
     0
 10
56.6194
 20
71.8136
 30
0.0
 11
57.4202
 21
71.8136
 31
0.0
  0
LINE
  8
0
 62
     0
 10
57.4202
 20
71.8136
 30
0.0
 11
57.4202
 21
74.9141
 31
0.0
  0
LINE
  8
0
 62
     0
 10
57.4202
 20
74.9141
 30
0.0
 11
56.6194
 21
74.9141
 31
0.0
  0
LINE
  8
0
 62
     0
 10
56.6194
 20
74.9141
 30
0.0
 11
56.6194
 21
75.9135
 31
0.0
  0
LINE
  8
0
 62
     0
 10
56.6194
 20
75.9135
 30
0.0
 11
42.6201
 21
75.9135
 31
0.0
  0
LINE
  8
0
 62
     0
 10
23.57
 20
75.9135
 30
0.0
 11
23.57
 21
74.9141
 31
0.0
  0
LINE
  8
0
 62
     0
 10
23.57
 20
74.9141
 30
0.0
 11
22.7693
 21
74.9141
 31
0.0
  0
LINE
  8
0
 62
     0
 10
22.7693
 20
74.9141
 30
0.0
 11
22.7693
 21
71.8136
 31
0.0
  0
LINE
  8
0
 62
     0
 10
22.7693
 20
71.8136
 30
0.0
 11
23.57
 21
71.8136
 31
0.0
  0
LINE
  8
0
 62
     0
 10
23.57
 20
71.8136
 30
0.0
 11
23.57
 21
66.0135
 31
0.0
  0
LINE
  8
0
 62
     0
 10
23.57
 20
66.0135
 30
0.0
 11
22.7693
 21
66.0135
 31
0.0
  0
LINE
  8
0
 62
     0
 10
22.7693
 20
66.0135
 30
0.0
 11
22.7693
 21
62.9144
 31
0.0
  0
LINE
  8
0
 62
     0
 10
22.7693
 20
62.9144
 30
0.0
 11
23.57
 21
62.9144
 31
0.0
  0
LINE
  8
0
 62
     0
 10
23.57
 20
62.9144
 30
0.0
 11
23.57
 21
61.9139
 31
0.0
  0
LINE
  8
0
 62
     0
 10
23.57
 20
61.9139
 30
0.0
 11
37.5694
 21
61.9139
 31
0.0
  0
LINE
  8
0
 62
     0
 10
37.5694
 20
61.9139
 30
0.0
 11
37.5694
 21
62.9144
 31
0.0
  0
LINE
  8
0
 62
     0
 10
37.5694
 20
62.9144
 30
0.0
 11
38.3702
 21
62.9144
 31
0.0
  0
LINE
  8
0
 62
     0
 10
38.3702
 20
62.9144
 30
0.0
 11
38.3702
 21
66.0135
 31
0.0
  0
LINE
  8
0
 62
     0
 10
38.3702
 20
66.0135
 30
0.0
 11
37.5694
 21
66.0135
 31
0.0
  0
LINE
  8
0
 62
     0
 10
37.5694
 20
66.0135
 30
0.0
 11
37.5694
 21
71.8136
 31
0.0
  0
LINE
  8
0
 62
     0
 10
37.5694
 20
71.8136
 30
0.0
 11
38.3702
 21
71.8136
 31
0.0
  0
LINE
  8
0
 62
     0
 10
38.3702
 20
71.8136
 30
0.0
 11
38.3702
 21
74.9141
 31
0.0
  0
LINE
  8
0
 62
     0
 10
38.3702
 20
74.9141
 30
0.0
 11
37.5694
 21
74.9141
 31
0.0
  0
LINE
  8
0
 62
     0
 10
37.5694
 20
74.9141
 30
0.0
 11
37.5694
 21
75.9135
 31
0.0
  0
LINE
  8
0
 62
     0
 10
37.5694
 20
75.9135
 30
0.0
 11
23.57
 21
75.9135
 31
0.0
  0
LINE
  8
0
 62
     0
 10
4.51997
 20
75.9135
 30
0.0
 11
4.51997
 21
74.9141
 31
0.0
  0
LINE
  8
0
 62
     0
 10
4.51997
 20
74.9141
 30
0.0
 11
3.71934
 21
74.9141
 31
0.0
  0
LINE
  8
0
 62
     0
 10
3.71934
 20
74.9141
 30
0.0
 11
3.71934
 21
71.8136
 31
0.0
  0
LINE
  8
0
 62
     0
 10
3.71934
 20
71.8136
 30
0.0
 11
4.51997
 21
71.8136
 31
0.0
  0
LINE
  8
0
 62
     0
 10
4.51997
 20
71.8136
 30
0.0
 11
4.51997
 21
66.0135
 31
0.0
  0
LINE
  8
0
 62
     0
 10
4.51997
 20
66.0135
 30
0.0
 11
3.71934
 21
66.0135
 31
0.0
  0
LINE
  8
0
 62
     0
 10
3.71934
 20
66.0135
 30
0.0
 11
3.71934
 21
62.9144
 31
0.0
  0
LINE
  8
0
 62
     0
 10
3.71934
 20
62.9144
 30
0.0
 11
4.51997
 21
62.9144
 31
0.0
  0
LINE
  8
0
 62
     0
 10
4.51997
 20
62.9144
 30
0.0
 11
4.51997
 21
61.9139
 31
0.0
  0
LINE
  8
0
 62
     0
 10
4.51997
 20
61.9139
 30
0.0
 11
18.5195
 21
61.9139
 31
0.0
  0
LINE
  8
0
 62
     0
 10
18.5195
 20
61.9139
 30
0.0
 11
18.5195
 21
62.9144
 31
0.0
  0
LINE
  8
0
 62
     0
 10
18.5195
 20
62.9144
 30
0.0
 11
19.3201
 21
62.9144
 31
0.0
  0
LINE
  8
0
 62
     0
 10
19.3201
 20
62.9144
 30
0.0
 11
19.3201
 21
66.0135
 31
0.0
  0
LINE
  8
0
 62
     0
 10
19.3201
 20
66.0135
 30
0.0
 11
18.5195
 21
66.0135
 31
0.0
  0
LINE
  8
0
 62
     0
 10
18.5195
 20
66.0135
 30
0.0
 11
18.5195
 21
71.8136
 31
0.0
  0
LINE
  8
0
 62
     0
 10
18.5195
 20
71.8136
 30
0.0
 11
19.3201
 21
71.8136
 31
0.0
  0
LINE
  8
0
 62
     0
 10
19.3201
 20
71.8136
 30
0.0
 11
19.3201
 21
74.9141
 31
0.0
  0
LINE
  8
0
 62
     0
 10
19.3201
 20
74.9141
 30
0.0
 11
18.5195
 21
74.9141
 31
0.0
  0
LINE
  8
0
 62
     0
 10
18.5195
 20
74.9141
 30
0.0
 11
18.5195
 21
75.9135
 31
0.0
  0
LINE
  8
0
 62
     0
 10
18.5195
 20
75.9135
 30
0.0
 11
4.51997
 21
75.9135
 31
0.0
  0
LINE
  8
0
 62
     0
 10
61.6701
 20
94.9635
 30
0.0
 11
61.6701
 21
93.9641
 31
0.0
  0
LINE
  8
0
 62
     0
 10
61.6701
 20
93.9641
 30
0.0
 11
60.8693
 21
93.9641
 31
0.0
  0
LINE
  8
0
 62
     0
 10
60.8693
 20
93.9641
 30
0.0
 11
60.8693
 21
90.8636
 31
0.0
  0
LINE
  8
0
 62
     0
 10
60.8693
 20
90.8636
 30
0.0
 11
61.6701
 21
90.8636
 31
0.0
  0
LINE
  8
0
 62
     0
 10
61.6701
 20
90.8636
 30
0.0
 11
61.6701
 21
85.0635
 31
0.0
  0
LINE
  8
0
 62
     0
 10
61.6701
 20
85.0635
 30
0.0
 11
60.8693
 21
85.0635
 31
0.0
  0
LINE
  8
0
 62
     0
 10
60.8693
 20
85.0635
 30
0.0
 11
60.8693
 21
81.9644
 31
0.0
  0
LINE
  8
0
 62
     0
 10
60.8693
 20
81.9644
 30
0.0
 11
61.6701
 21
81.9644
 31
0.0
  0
LINE
  8
0
 62
     0
 10
61.6701
 20
81.9644
 30
0.0
 11
61.6701
 21
80.9639
 31
0.0
  0
LINE
  8
0
 62
     0
 10
61.6701
 20
80.9639
 30
0.0
 11
75.6694
 21
80.9639
 31
0.0
  0
LINE
  8
0
 62
     0
 10
75.6694
 20
80.9639
 30
0.0
 11
75.6694
 21
81.9644
 31
0.0
  0
LINE
  8
0
 62
     0
 10
75.6694
 20
81.9644
 30
0.0
 11
76.4702
 21
81.9644
 31
0.0
  0
LINE
  8
0
 62
     0
 10
76.4702
 20
81.9644
 30
0.0
 11
76.4702
 21
85.0635
 31
0.0
  0
LINE
  8
0
 62
     0
 10
76.4702
 20
85.0635
 30
0.0
 11
75.6694
 21
85.0635
 31
0.0
  0
LINE
  8
0
 62
     0
 10
75.6694
 20
85.0635
 30
0.0
 11
75.6694
 21
90.8636
 31
0.0
  0
LINE
  8
0
 62
     0
 10
75.6694
 20
90.8636
 30
0.0
 11
76.4702
 21
90.8636
 31
0.0
  0
LINE
  8
0
 62
     0
 10
76.4702
 20
90.8636
 30
0.0
 11
76.4702
 21
93.9641
 31
0.0
  0
LINE
  8
0
 62
     0
 10
76.4702
 20
93.9641
 30
0.0
 11
75.6694
 21
93.9641
 31
0.0
  0
LINE
  8
0
 62
     0
 10
75.6694
 20
93.9641
 30
0.0
 11
75.6694
 21
94.9635
 31
0.0
  0
LINE
  8
0
 62
     0
 10
75.6694
 20
94.9635
 30
0.0
 11
61.6701
 21
94.9635
 31
0.0
  0
LINE
  8
0
 62
     0
 10
42.6201
 20
94.9635
 30
0.0
 11
42.6201
 21
93.9641
 31
0.0
  0
LINE
  8
0
 62
     0
 10
42.6201
 20
93.9641
 30
0.0
 11
41.8193
 21
93.9641
 31
0.0
  0
LINE
  8
0
 62
     0
 10
41.8193
 20
93.9641
 30
0.0
 11
41.8193
 21
90.8636
 31
0.0
  0
LINE
  8
0
 62
     0
 10
41.8193
 20
90.8636
 30
0.0
 11
42.6201
 21
90.8636
 31
0.0
  0
LINE
  8
0
 62
     0
 10
42.6201
 20
90.8636
 30
0.0
 11
42.6201
 21
85.0635
 31
0.0
  0
LINE
  8
0
 62
     0
 10
42.6201
 20
85.0635
 30
0.0
 11
41.8193
 21
85.0635
 31
0.0
  0
LINE
  8
0
 62
     0
 10
41.8193
 20
85.0635
 30
0.0
 11
41.8193
 21
81.9644
 31
0.0
  0
LINE
  8
0
 62
     0
 10
41.8193
 20
81.9644
 30
0.0
 11
42.6201
 21
81.9644
 31
0.0
  0
LINE
  8
0
 62
     0
 10
42.6201
 20
81.9644
 30
0.0
 11
42.6201
 21
80.9639
 31
0.0
  0
LINE
  8
0
 62
     0
 10
42.6201
 20
80.9639
 30
0.0
 11
56.6194
 21
80.9639
 31
0.0
  0
LINE
  8
0
 62
     0
 10
56.6194
 20
80.9639
 30
0.0
 11
56.6194
 21
81.9644
 31
0.0
  0
LINE
  8
0
 62
     0
 10
56.6194
 20
81.9644
 30
0.0
 11
57.4202
 21
81.9644
 31
0.0
  0
LINE
  8
0
 62
     0
 10
57.4202
 20
81.9644
 30
0.0
 11
57.4202
 21
85.0635
 31
0.0
  0
LINE
  8
0
 62
     0
 10
57.4202
 20
85.0635
 30
0.0
 11
56.6194
 21
85.0635
 31
0.0
  0
LINE
  8
0
 62
     0
 10
56.6194
 20
85.0635
 30
0.0
 11
56.6194
 21
90.8636
 31
0.0
  0
LINE
  8
0
 62
     0
 10
56.6194
 20
90.8636
 30
0.0
 11
57.4202
 21
90.8636
 31
0.0
  0
LINE
  8
0
 62
     0
 10
57.4202
 20
90.8636
 30
0.0
 11
57.4202
 21
93.9641
 31
0.0
  0
LINE
  8
0
 62
     0
 10
57.4202
 20
93.9641
 30
0.0
 11
56.6194
 21
93.9641
 31
0.0
  0
LINE
  8
0
 62
     0
 10
56.6194
 20
93.9641
 30
0.0
 11
56.6194
 21
94.9635
 31
0.0
  0
LINE
  8
0
 62
     0
 10
56.6194
 20
94.9635
 30
0.0
 11
42.6201
 21
94.9635
 31
0.0
  0
LINE
  8
0
 62
     0
 10
23.57
 20
94.9635
 30
0.0
 11
23.57
 21
93.9641
 31
0.0
  0
LINE
  8
0
 62
     0
 10
23.57
 20
93.9641
 30
0.0
 11
22.7693
 21
93.9641
 31
0.0
  0
LINE
  8
0
 62
     0
 10
22.7693
 20
93.9641
 30
0.0
 11
22.7693
 21
90.8636
 31
0.0
  0
LINE
  8
0
 62
     0
 10
22.7693
 20
90.8636
 30
0.0
 11
23.57
 21
90.8636
 31
0.0
  0
LINE
  8
0
 62
     0
 10
23.57
 20
90.8636
 30
0.0
 11
23.57
 21
85.0635
 31
0.0
  0
LINE
  8
0
 62
     0
 10
23.57
 20
85.0635
 30
0.0
 11
22.7693
 21
85.0635
 31
0.0
  0
LINE
  8
0
 62
     0
 10
22.7693
 20
85.0635
 30
0.0
 11
22.7693
 21
81.9644
 31
0.0
  0
LINE
  8
0
 62
     0
 10
22.7693
 20
81.9644
 30
0.0
 11
23.57
 21
81.9644
 31
0.0
  0
LINE
  8
0
 62
     0
 10
23.57
 20
81.9644
 30
0.0
 11
23.57
 21
80.9639
 31
0.0
  0
LINE
  8
0
 62
     0
 10
23.57
 20
80.9639
 30
0.0
 11
37.5694
 21
80.9639
 31
0.0
  0
LINE
  8
0
 62
     0
 10
37.5694
 20
80.9639
 30
0.0
 11
37.5694
 21
81.9644
 31
0.0
  0
LINE
  8
0
 62
     0
 10
37.5694
 20
81.9644
 30
0.0
 11
38.3702
 21
81.9644
 31
0.0
  0
LINE
  8
0
 62
     0
 10
38.3702
 20
81.9644
 30
0.0
 11
38.3702
 21
85.0635
 31
0.0
  0
LINE
  8
0
 62
     0
 10
38.3702
 20
85.0635
 30
0.0
 11
37.5694
 21
85.0635
 31
0.0
  0
LINE
  8
0
 62
     0
 10
37.5694
 20
85.0635
 30
0.0
 11
37.5694
 21
90.8636
 31
0.0
  0
LINE
  8
0
 62
     0
 10
37.5694
 20
90.8636
 30
0.0
 11
38.3702
 21
90.8636
 31
0.0
  0
LINE
  8
0
 62
     0
 10
38.3702
 20
90.8636
 30
0.0
 11
38.3702
 21
93.9641
 31
0.0
  0
LINE
  8
0
 62
     0
 10
38.3702
 20
93.9641
 30
0.0
 11
37.5694
 21
93.9641
 31
0.0
  0
LINE
  8
0
 62
     0
 10
37.5694
 20
93.9641
 30
0.0
 11
37.5694
 21
94.9635
 31
0.0
  0
LINE
  8
0
 62
     0
 10
37.5694
 20
94.9635
 30
0.0
 11
23.57
 21
94.9635
 31
0.0
  0
LINE
  8
0
 62
     0
 10
4.51997
 20
94.9635
 30
0.0
 11
4.51997
 21
93.9641
 31
0.0
  0
LINE
  8
0
 62
     0
 10
4.51997
 20
93.9641
 30
0.0
 11
3.71934
 21
93.9641
 31
0.0
  0
LINE
  8
0
 62
     0
 10
3.71934
 20
93.9641
 30
0.0
 11
3.71934
 21
90.8636
 31
0.0
  0
LINE
  8
0
 62
     0
 10
3.71934
 20
90.8636
 30
0.0
 11
4.51997
 21
90.8636
 31
0.0
  0
LINE
  8
0
 62
     0
 10
4.51997
 20
90.8636
 30
0.0
 11
4.51997
 21
85.0635
 31
0.0
  0
LINE
  8
0
 62
     0
 10
4.51997
 20
85.0635
 30
0.0
 11
3.71934
 21
85.0635
 31
0.0
  0
LINE
  8
0
 62
     0
 10
3.71934
 20
85.0635
 30
0.0
 11
3.71934
 21
81.9644
 31
0.0
  0
LINE
  8
0
 62
     0
 10
3.71934
 20
81.9644
 30
0.0
 11
4.51997
 21
81.9644
 31
0.0
  0
LINE
  8
0
 62
     0
 10
4.51997
 20
81.9644
 30
0.0
 11
4.51997
 21
80.9639
 31
0.0
  0
LINE
  8
0
 62
     0
 10
4.51997
 20
80.9639
 30
0.0
 11
18.5195
 21
80.9639
 31
0.0
  0
LINE
  8
0
 62
     0
 10
18.5195
 20
80.9639
 30
0.0
 11
18.5195
 21
81.9644
 31
0.0
  0
LINE
  8
0
 62
     0
 10
18.5195
 20
81.9644
 30
0.0
 11
19.3201
 21
81.9644
 31
0.0
  0
LINE
  8
0
 62
     0
 10
19.3201
 20
81.9644
 30
0.0
 11
19.3201
 21
85.0635
 31
0.0
  0
LINE
  8
0
 62
     0
 10
19.3201
 20
85.0635
 30
0.0
 11
18.5195
 21
85.0635
 31
0.0
  0
LINE
  8
0
 62
     0
 10
18.5195
 20
85.0635
 30
0.0
 11
18.5195
 21
90.8636
 31
0.0
  0
LINE
  8
0
 62
     0
 10
18.5195
 20
90.8636
 30
0.0
 11
19.3201
 21
90.8636
 31
0.0
  0
LINE
  8
0
 62
     0
 10
19.3201
 20
90.8636
 30
0.0
 11
19.3201
 21
93.9641
 31
0.0
  0
LINE
  8
0
 62
     0
 10
19.3201
 20
93.9641
 30
0.0
 11
18.5195
 21
93.9641
 31
0.0
  0
LINE
  8
0
 62
     0
 10
18.5195
 20
93.9641
 30
0.0
 11
18.5195
 21
94.9635
 31
0.0
  0
LINE
  8
0
 62
     0
 10
18.5195
 20
94.9635
 30
0.0
 11
4.51997
 21
94.9635
 31
0.0
  0
LINE
  8
0
 62
     0
 10
61.6701
 20
123.539
 30
0.0
 11
61.6701
 21
122.539
 31
0.0
  0
LINE
  8
0
 62
     0
 10
61.6701
 20
122.539
 30
0.0
 11
60.8693
 21
122.539
 31
0.0
  0
LINE
  8
0
 62
     0
 10
60.8693
 20
122.539
 30
0.0
 11
60.8693
 21
119.439
 31
0.0
  0
LINE
  8
0
 62
     0
 10
60.8693
 20
119.439
 30
0.0
 11
61.6701
 21
119.439
 31
0.0
  0
LINE
  8
0
 62
     0
 10
61.6701
 20
119.439
 30
0.0
 11
61.6701
 21
113.639
 31
0.0
  0
LINE
  8
0
 62
     0
 10
61.6701
 20
113.639
 30
0.0
 11
60.8693
 21
113.639
 31
0.0
  0
LINE
  8
0
 62
     0
 10
60.8693
 20
113.639
 30
0.0
 11
60.8693
 21
110.539
 31
0.0
  0
LINE
  8
0
 62
     0
 10
60.8693
 20
110.539
 30
0.0
 11
61.6701
 21
110.539
 31
0.0
  0
LINE
  8
0
 62
     0
 10
61.6701
 20
110.539
 30
0.0
 11
61.6701
 21
109.539
 31
0.0
  0
LINE
  8
0
 62
     0
 10
61.6701
 20
109.539
 30
0.0
 11
75.6694
 21
109.539
 31
0.0
  0
LINE
  8
0
 62
     0
 10
75.6694
 20
109.539
 30
0.0
 11
75.6694
 21
110.539
 31
0.0
  0
LINE
  8
0
 62
     0
 10
75.6694
 20
110.539
 30
0.0
 11
76.4702
 21
110.539
 31
0.0
  0
LINE
  8
0
 62
     0
 10
76.4702
 20
110.539
 30
0.0
 11
76.4702
 21
113.639
 31
0.0
  0
LINE
  8
0
 62
     0
 10
76.4702
 20
113.639
 30
0.0
 11
75.6694
 21
113.639
 31
0.0
  0
LINE
  8
0
 62
     0
 10
75.6694
 20
113.639
 30
0.0
 11
75.6694
 21
119.439
 31
0.0
  0
LINE
  8
0
 62
     0
 10
75.6694
 20
119.439
 30
0.0
 11
76.4702
 21
119.439
 31
0.0
  0
LINE
  8
0
 62
     0
 10
76.4702
 20
119.439
 30
0.0
 11
76.4702
 21
122.539
 31
0.0
  0
LINE
  8
0
 62
     0
 10
76.4702
 20
122.539
 30
0.0
 11
75.6694
 21
122.539
 31
0.0
  0
LINE
  8
0
 62
     0
 10
75.6694
 20
122.539
 30
0.0
 11
75.6694
 21
123.539
 31
0.0
  0
LINE
  8
0
 62
     0
 10
75.6694
 20
123.539
 30
0.0
 11
61.6701
 21
123.539
 31
0.0
  0
LINE
  8
0
 62
     0
 10
42.6201
 20
123.539
 30
0.0
 11
42.6201
 21
122.539
 31
0.0
  0
LINE
  8
0
 62
     0
 10
42.6201
 20
122.539
 30
0.0
 11
41.8193
 21
122.539
 31
0.0
  0
LINE
  8
0
 62
     0
 10
41.8193
 20
122.539
 30
0.0
 11
41.8193
 21
119.439
 31
0.0
  0
LINE
  8
0
 62
     0
 10
41.8193
 20
119.439
 30
0.0
 11
42.6201
 21
119.439
 31
0.0
  0
LINE
  8
0
 62
     0
 10
42.6201
 20
119.439
 30
0.0
 11
42.6201
 21
113.639
 31
0.0
  0
LINE
  8
0
 62
     0
 10
42.6201
 20
113.639
 30
0.0
 11
41.8193
 21
113.639
 31
0.0
  0
LINE
  8
0
 62
     0
 10
41.8193
 20
113.639
 30
0.0
 11
41.8193
 21
110.539
 31
0.0
  0
LINE
  8
0
 62
     0
 10
41.8193
 20
110.539
 30
0.0
 11
42.6201
 21
110.539
 31
0.0
  0
LINE
  8
0
 62
     0
 10
42.6201
 20
110.539
 30
0.0
 11
42.6201
 21
109.539
 31
0.0
  0
LINE
  8
0
 62
     0
 10
42.6201
 20
109.539
 30
0.0
 11
56.6194
 21
109.539
 31
0.0
  0
LINE
  8
0
 62
     0
 10
56.6194
 20
109.539
 30
0.0
 11
56.6194
 21
110.539
 31
0.0
  0
LINE
  8
0
 62
     0
 10
56.6194
 20
110.539
 30
0.0
 11
57.4202
 21
110.539
 31
0.0
  0
LINE
  8
0
 62
     0
 10
57.4202
 20
110.539
 30
0.0
 11
57.4202
 21
113.639
 31
0.0
  0
LINE
  8
0
 62
     0
 10
57.4202
 20
113.639
 30
0.0
 11
56.6194
 21
113.639
 31
0.0
  0
LINE
  8
0
 62
     0
 10
56.6194
 20
113.639
 30
0.0
 11
56.6194
 21
119.439
 31
0.0
  0
LINE
  8
0
 62
     0
 10
56.6194
 20
119.439
 30
0.0
 11
57.4202
 21
119.439
 31
0.0
  0
LINE
  8
0
 62
     0
 10
57.4202
 20
119.439
 30
0.0
 11
57.4202
 21
122.539
 31
0.0
  0
LINE
  8
0
 62
     0
 10
57.4202
 20
122.539
 30
0.0
 11
56.6194
 21
122.539
 31
0.0
  0
LINE
  8
0
 62
     0
 10
56.6194
 20
122.539
 30
0.0
 11
56.6194
 21
123.539
 31
0.0
  0
LINE
  8
0
 62
     0
 10
56.6194
 20
123.539
 30
0.0
 11
42.6201
 21
123.539
 31
0.0
  0
LINE
  8
0
 62
     0
 10
23.57
 20
123.539
 30
0.0
 11
23.57
 21
122.539
 31
0.0
  0
LINE
  8
0
 62
     0
 10
23.57
 20
122.539
 30
0.0
 11
22.7693
 21
122.539
 31
0.0
  0
LINE
  8
0
 62
     0
 10
22.7693
 20
122.539
 30
0.0
 11
22.7693
 21
119.439
 31
0.0
  0
LINE
  8
0
 62
     0
 10
22.7693
 20
119.439
 30
0.0
 11
23.57
 21
119.439
 31
0.0
  0
LINE
  8
0
 62
     0
 10
23.57
 20
119.439
 30
0.0
 11
23.57
 21
113.639
 31
0.0
  0
LINE
  8
0
 62
     0
 10
23.57
 20
113.639
 30
0.0
 11
22.7693
 21
113.639
 31
0.0
  0
LINE
  8
0
 62
     0
 10
22.7693
 20
113.639
 30
0.0
 11
22.7693
 21
110.539
 31
0.0
  0
LINE
  8
0
 62
     0
 10
22.7693
 20
110.539
 30
0.0
 11
23.57
 21
110.539
 31
0.0
  0
LINE
  8
0
 62
     0
 10
23.57
 20
110.539
 30
0.0
 11
23.57
 21
109.539
 31
0.0
  0
LINE
  8
0
 62
     0
 10
23.57
 20
109.539
 30
0.0
 11
37.5694
 21
109.539
 31
0.0
  0
LINE
  8
0
 62
     0
 10
37.5694
 20
109.539
 30
0.0
 11
37.5694
 21
110.539
 31
0.0
  0
LINE
  8
0
 62
     0
 10
37.5694
 20
110.539
 30
0.0
 11
38.3702
 21
110.539
 31
0.0
  0
LINE
  8
0
 62
     0
 10
38.3702
 20
110.539
 30
0.0
 11
38.3702
 21
113.639
 31
0.0
  0
LINE
  8
0
 62
     0
 10
38.3702
 20
113.639
 30
0.0
 11
37.5694
 21
113.639
 31
0.0
  0
LINE
  8
0
 62
     0
 10
37.5694
 20
113.639
 30
0.0
 11
37.5694
 21
119.439
 31
0.0
  0
LINE
  8
0
 62
     0
 10
37.5694
 20
119.439
 30
0.0
 11
38.3702
 21
119.439
 31
0.0
  0
LINE
  8
0
 62
     0
 10
38.3702
 20
119.439
 30
0.0
 11
38.3702
 21
122.539
 31
0.0
  0
LINE
  8
0
 62
     0
 10
38.3702
 20
122.539
 30
0.0
 11
37.5694
 21
122.539
 31
0.0
  0
LINE
  8
0
 62
     0
 10
37.5694
 20
122.539
 30
0.0
 11
37.5694
 21
123.539
 31
0.0
  0
LINE
  8
0
 62
     0
 10
37.5694
 20
123.539
 30
0.0
 11
23.57
 21
123.539
 31
0.0
  0
LINE
  8
0
 62
     0
 10
4.51997
 20
123.539
 30
0.0
 11
4.51997
 21
122.539
 31
0.0
  0
LINE
  8
0
 62
     0
 10
4.51997
 20
122.539
 30
0.0
 11
3.71934
 21
122.539
 31
0.0
  0
LINE
  8
0
 62
     0
 10
3.71934
 20
122.539
 30
0.0
 11
3.71934
 21
119.439
 31
0.0
  0
LINE
  8
0
 62
     0
 10
3.71934
 20
119.439
 30
0.0
 11
4.51997
 21
119.439
 31
0.0
  0
LINE
  8
0
 62
     0
 10
4.51997
 20
119.439
 30
0.0
 11
4.51997
 21
113.639
 31
0.0
  0
LINE
  8
0
 62
     0
 10
4.51997
 20
113.639
 30
0.0
 11
3.71934
 21
113.639
 31
0.0
  0
LINE
  8
0
 62
     0
 10
3.71934
 20
113.639
 30
0.0
 11
3.71934
 21
110.539
 31
0.0
  0
LINE
  8
0
 62
     0
 10
3.71934
 20
110.539
 30
0.0
 11
4.51997
 21
110.539
 31
0.0
  0
LINE
  8
0
 62
     0
 10
4.51997
 20
110.539
 30
0.0
 11
4.51997
 21
109.539
 31
0.0
  0
LINE
  8
0
 62
     0
 10
4.51997
 20
109.539
 30
0.0
 11
18.5195
 21
109.539
 31
0.0
  0
LINE
  8
0
 62
     0
 10
18.5195
 20
109.539
 30
0.0
 11
18.5195
 21
110.539
 31
0.0
  0
LINE
  8
0
 62
     0
 10
18.5195
 20
110.539
 30
0.0
 11
19.3201
 21
110.539
 31
0.0
  0
LINE
  8
0
 62
     0
 10
19.3201
 20
110.539
 30
0.0
 11
19.3201
 21
113.639
 31
0.0
  0
LINE
  8
0
 62
     0
 10
19.3201
 20
113.639
 30
0.0
 11
18.5195
 21
113.639
 31
0.0
  0
LINE
  8
0
 62
     0
 10
18.5195
 20
113.639
 30
0.0
 11
18.5195
 21
119.439
 31
0.0
  0
LINE
  8
0
 62
     0
 10
18.5195
 20
119.439
 30
0.0
 11
19.3201
 21
119.439
 31
0.0
  0
LINE
  8
0
 62
     0
 10
19.3201
 20
119.439
 30
0.0
 11
19.3201
 21
122.539
 31
0.0
  0
LINE
  8
0
 62
     0
 10
19.3201
 20
122.539
 30
0.0
 11
18.5195
 21
122.539
 31
0.0
  0
LINE
  8
0
 62
     0
 10
18.5195
 20
122.539
 30
0.0
 11
18.5195
 21
123.539
 31
0.0
  0
LINE
  8
0
 62
     0
 10
18.5195
 20
123.539
 30
0.0
 11
4.51997
 21
123.539
 31
0.0
  0
ENDSEC
  0
EOF
